<?xml version="1.0" encoding="utf-8"?>
<!-- Generator: Adobe Illustrator 18.0.0, SVG Export Plug-In . SVG Version: 6.00 Build 0)  -->
<!DOCTYPE svg PUBLIC "-//W3C//DTD SVG 1.1//EN" "http://www.w3.org/Graphics/SVG/1.1/DTD/svg11.dtd">
<svg version="1.1" id="Layer_1" xmlns="http://www.w3.org/2000/svg" xmlns:xlink="http://www.w3.org/1999/xlink" x="0px" y="0px"
	 viewBox="0 0 60 47" enable-background="new 0 0 60 47" xml:space="preserve">
<path fill="#617D8A" d="M41.2,17.8L52,28.6L41.2,39.4L39.8,38l9.4-9.4l-9.4-9.4L41.2,17.8z M17.8,17.8L7,28.6l10.8,10.8l1.4-1.4
	l-9.4-9.4l9.4-9.4L17.8,17.8z M60,3v44H0V3c0-1.7,1.3-3,3-3h54C58.7,0,60,1.3,60,3z M2,3v7h56V3c0-0.6-0.4-1-1-1H3C2.4,2,2,2.4,2,3z
	 M58,45V12H2v33H58z M7,5.2H5v1.9H7V5.2z M11,5.2H9v1.9H11V5.2z M15,5.2H13v1.9H15V5.2z M22,40.7l1.8,0.9L37,17l-1.8-0.9L22,40.7z"
	/>
</svg>
